<svg id="Layer_3" enable-background="new 0 0 64 64" height="512" viewBox="0 0 64 64" width="512" xmlns="http://www.w3.org/2000/svg"><g><g fill="#4c506e"><path d="m11 41h-2v4h-4v2h4v15h2v-15h4v-2h-4z"/><path d="m63 44h-6v-6h-2v6h-6v2h6v16h2v-16h6z"/></g><path d="m46 60v-20c0-7.732-6.268-14-14-14-7.732 0-14 6.268-14 14v20" fill="#4c506e"/><path d="m35 53c2.209 0 4-1.791 4-4v-21.112c-2.061-1.194-4.447-1.888-7-1.888-7.732 0-14 6.268-14 14v13z" fill="#787faa"/><path d="m27 62 1.697-1.697c3.395-3.395 8.001-5.303 12.803-5.303 4.802 0 9.408 1.908 12.803 5.303l1.697 1.697" fill="#939393"/><path d="m7 62 1.697-1.697c3.395-3.395 8.001-5.303 12.803-5.303 4.802 0 9.408 1.908 12.803 5.303l1.697 1.697" fill="#b5b5b5"/><path d="m30 36c0-1.654-1.346-3-3-3h-4c-.553 0-1 .447-1 1v7h2v-2h2.764c.762.381 1.236 1.147 1.236 2h2c0-1.039-.375-2.007-1.024-2.76.623-.55 1.024-1.345 1.024-2.24zm-6-1h3c.552 0 1 .448 1 1s-.448 1-1 1h-3z" fill="#fff"/><path d="m39 33v2c.552 0 1 .448 1 1s-.448 1-1 1v2c1.654 0 3-1.346 3-3s-1.346-3-3-3z" fill="#ccc"/><path d="m31 33h2v8h-2z" fill="#fff"/><path d="m36 37v-2h3v-2h-4c-.553 0-1 .447-1 1v7h2v-2h3v-2z" fill="#fff"/><path d="m32.367 17.347 6.633 2.653 1-1-2.733-6.832" fill="#f29b99"/><path d="m31.508 17.397-6.508 2.603-1-1 2.677-6.693" fill="#ba4753"/><path d="m32.732 6.507 6.268-2.507 1 1-2.409 6.022" fill="#ba4753"/><path d="m31.063 6.425-6.063-2.425-1 1 2.329 5.824" fill="#f29b99"/><path d="m26.216 13.602c.56 2.026 2.156 3.621 4.181 4.181l.603 4.217h2l.602-4.217c2.06-.569 3.676-2.21 4.209-4.285l-.028-3.101c-.56-2.025-2.156-3.621-4.181-4.181 0 .001-.602-4.216-.602-4.216h-2l-.602 4.217c-2.026.56-3.621 2.155-4.181 4.181" fill="#e1656e"/><path d="m35 14 7-1v-2l-7-1" fill="#f29b99"/><path d="m29 14-7-1v-2l7-1" fill="#ba4753"/><g><path d="m30 8h2v2h-2z" fill="#f29b99"/></g><g><path d="m32 14h2v2h-2z" fill="#ba4753"/></g><g><path d="m5 21h3v2h-3z" fill="#f29b99"/></g><g><path d="m11 15h2v3h-2z" fill="#e1656e"/></g><g><path d="m11 26h2v3h-2z" fill="#e1656e"/></g><g><path d="m16 21h3v2h-3z" fill="#f29b99"/></g><circle cx="12" cy="22" fill="#e1656e" r="4"/><g><path d="m12 27c-2.757 0-5-2.243-5-5s2.243-5 5-5 5 2.243 5 5-2.243 5-5 5zm0-8c-1.654 0-3 1.346-3 3s1.346 3 3 3 3-1.346 3-3-1.346-3-3-3z" fill="#ba4753"/></g><g><path d="m8 16.172h2v5.657h-2z" fill="#8d353e" transform="matrix(.707 -.707 .707 .707 -10.799 11.929)"/></g><g><path d="m12.172 18h5.657v2h-5.657z" fill="#f29b99" transform="matrix(.707 -.707 .707 .707 -9.042 16.172)"/></g><g><path d="m6.172 24h5.657v2h-5.657z" fill="#f29b99" transform="matrix(.707 -.707 .707 .707 -15.042 13.686)"/></g><g><path d="m14 22.172h2v5.657h-2z" fill="#8d353e" transform="matrix(.707 -.707 .707 .707 -13.284 17.929)"/></g><g><path d="m45 21h3v2h-3z" fill="#f29b99"/></g><g><path d="m51 15h2v3h-2z" fill="#e1656e"/></g><g><path d="m51 26h2v3h-2z" fill="#e1656e"/></g><g><path d="m56 21h3v2h-3z" fill="#f29b99"/></g><circle cx="52" cy="22" fill="#e1656e" r="4"/><g><path d="m52 27c-2.757 0-5-2.243-5-5s2.243-5 5-5 5 2.243 5 5-2.243 5-5 5zm0-8c-1.654 0-3 1.346-3 3s1.346 3 3 3 3-1.346 3-3-1.346-3-3-3z" fill="#ba4753"/></g><g><path d="m48 16.172h2v5.657h-2z" fill="#8d353e" transform="matrix(.707 -.707 .707 .707 .917 40.213)"/></g><g><path d="m52.172 18h5.657v2h-5.657z" fill="#f29b99" transform="matrix(.707 -.707 .707 .707 2.674 44.456)"/></g><g><path d="m46.172 24h5.657v2h-5.657z" fill="#f29b99" transform="matrix(.707 -.707 .707 .707 -3.326 41.971)"/></g><g><path d="m54 22.172h2v5.657h-2z" fill="#8d353e" transform="matrix(.707 -.707 .707 .707 -1.569 46.213)"/></g><g><path d="m1 61h62v2h-62z" fill="#939393"/></g></g></svg>